<svg width="71" height="58" viewBox="0 0 71 58" fill="none" xmlns="http://www.w3.org/2000/svg">
<path d="M35.5 0.125L0.916626 30.5H11.2916V57.5H59.7083V30.5H70.0833M38.9583 50.75H32.0416V47.375H38.9583M40.6875 39.2075V44H30.3125V39.2075C28.3346 38.0931 26.7887 36.3729 25.9147 34.3137C25.0407 32.2545 24.8874 29.9714 25.4785 27.8185C26.0696 25.6655 27.3721 23.7631 29.1841 22.4063C30.996 21.0494 33.2161 20.314 35.5 20.314C37.7839 20.314 40.0039 21.0494 41.8159 22.4063C43.6278 23.7631 44.9303 25.6655 45.5214 27.8185C46.1126 29.9714 45.9592 32.2545 45.0852 34.3137C44.2112 36.3729 42.6654 38.0931 40.6875 39.2075Z" fill="url(#paint0_linear_49_32)"/>
<defs>
<linearGradient id="paint0_linear_49_32" x1="35.5" y1="0.125" x2="35.5" y2="57.5" gradientUnits="userSpaceOnUse">
<stop stop-color="#1F724D"/>
<stop offset="1" stop-color="#3BD892"/>
</linearGradient>
</defs>
</svg>
