<svg width="20" height="20" viewBox="0 0 20 20" fill="none" xmlns="http://www.w3.org/2000/svg">
<path d="M8.33329 12.4998L12.6583 9.99984L8.33329 7.49984V12.4998ZM17.9666 5.97484C18.075 6.3665 18.15 6.8915 18.2 7.55817C18.2583 8.22484 18.2833 8.79984 18.2833 9.29984L18.3333 9.99984C18.3333 11.8248 18.2 13.1665 17.9666 14.0248C17.7583 14.7748 17.275 15.2582 16.525 15.4665C16.1333 15.5748 15.4166 15.6498 14.3166 15.6998C13.2333 15.7582 12.2416 15.7832 11.325 15.7832L9.99996 15.8332C6.50829 15.8332 4.33329 15.6998 3.47496 15.4665C2.72496 15.2582 2.24163 14.7748 2.03329 14.0248C1.92496 13.6332 1.84996 13.1082 1.79996 12.4415C1.74163 11.7748 1.71663 11.1998 1.71663 10.6998L1.66663 9.99984C1.66663 8.17484 1.79996 6.83317 2.03329 5.97484C2.24163 5.22484 2.72496 4.7415 3.47496 4.53317C3.86663 4.42484 4.58329 4.34984 5.68329 4.29984C6.76663 4.2415 7.75829 4.2165 8.67496 4.2165L9.99996 4.1665C13.4916 4.1665 15.6666 4.29984 16.525 4.53317C17.275 4.7415 17.7583 5.22484 17.9666 5.97484Z" fill="url(#paint0_linear_5_816)"/>
<defs>
<linearGradient id="paint0_linear_5_816" x1="9.99996" y1="4.1665" x2="9.99996" y2="15.8332" gradientUnits="userSpaceOnUse">
<stop stop-color="#1F724D"/>
<stop offset="0.5" stop-color="#1F724D"/>
<stop offset="1" stop-color="#48DA98"/>
</linearGradient>
</defs>
</svg>
