<svg width="21" height="22" viewBox="0 0 21 22" fill="none" xmlns="http://www.w3.org/2000/svg">
<path d="M12 2C15.88 2 19 5.14 19 9C19 11.8 17.37 14.19 15 15.31V20H7.99997V17H6.99997C5.88997 17 4.99997 16.11 4.99997 15V12H3.49997C3.07997 12 2.83997 11.5 3.07997 11.19L4.99997 8.66C5.08808 6.86329 5.8642 5.16939 7.16744 3.92945C8.47069 2.6895 10.2011 1.99861 12 2ZM12 0C7.41997 0 3.60997 3.43 3.05997 7.91L1.49997 10C0.91997 10.72 0.81997 11.72 1.23997 12.59C1.59997 13.31 2.23997 13.8 2.99997 13.95V15C2.99997 16.86 4.27997 18.43 5.99997 18.87V22H17V16.47C19.5 14.83 21 12.06 21 9C21 4.04 16.96 0 12 0ZM11.47 12L7.99997 8.5L9.39997 7.09L11.47 9.17L15.6 5L17 6.41L11.47 12Z" fill="url(#paint0_linear_4_38)"/>
<defs>
<linearGradient id="paint0_linear_4_38" x1="10.9914" y1="0" x2="10.9914" y2="22" gradientUnits="userSpaceOnUse">
<stop stop-color="#75EBB6"/>
<stop offset="0.5" stop-color="#84DAB4"/>
<stop offset="1" stop-color="#1F724D"/>
</linearGradient>
</defs>
</svg>
