<svg width="16" height="27" viewBox="0 0 16 27" fill="none" xmlns="http://www.w3.org/2000/svg">
<path d="M4 0.872925C2.9 0.872925 2 1.9283 2 3.21821V7.90879H4V4.39086H14V23.1532H4V19.6352H2V24.3258C2 25.6157 2.9 26.6711 4 26.6711H14C15.1 26.6711 16 25.6157 16 24.3258V3.21821C16 1.9283 15.1 0.872925 14 0.872925H4ZM3 10.2541C1.3 10.2541 0 11.7785 0 13.772C0 15.7655 1.3 17.2899 3 17.2899C4.3 17.2899 5.4 16.3518 5.8 14.9447H8V17.2899H10V14.9447H12V12.5994H5.8C5.4 11.1922 4.3 10.2541 3 10.2541ZM3 12.5994C3.6 12.5994 4 13.0684 4 13.772C4 14.4756 3.6 14.9447 3 14.9447C2.4 14.9447 2 14.4756 2 13.772C2 13.0684 2.4 12.5994 3 12.5994Z" fill="url(#paint0_linear_5_645)"/>
<defs>
<linearGradient id="paint0_linear_5_645" x1="8" y1="0.872925" x2="8" y2="26.6711" gradientUnits="userSpaceOnUse">
<stop stop-color="#75EBB6"/>
<stop offset="0.5" stop-color="#84DAB4"/>
<stop offset="1" stop-color="#1F724D"/>
</linearGradient>
</defs>
</svg>
