<svg width="24" height="24" viewBox="0 0 24 24" fill="none" xmlns="http://www.w3.org/2000/svg">
<path d="M12 8V16M9 10V14M6 11V13M15 10V14M18 11V13M2.5 12C2.5 7.522 2.5 5.282 3.891 3.891C5.282 2.5 7.521 2.5 12 2.5C16.478 2.5 18.718 2.5 20.109 3.891C21.5 5.282 21.5 7.521 21.5 12C21.5 16.478 21.5 18.718 20.109 20.109C18.718 21.5 16.479 21.5 12 21.5C7.522 21.5 5.282 21.5 3.891 20.109C2.5 18.718 2.5 16.479 2.5 12Z" stroke="url(#paint0_linear_4_33)" stroke-width="1.5" stroke-linecap="round" stroke-linejoin="round"/>
<defs>
<linearGradient id="paint0_linear_4_33" x1="12" y1="2.5" x2="12" y2="21.5" gradientUnits="userSpaceOnUse">
<stop stop-color="#75EBB6"/>
<stop offset="0.5" stop-color="#84DAB4"/>
<stop offset="1" stop-color="#1F724D"/>
</linearGradient>
</defs>
</svg>
