<svg width="38" height="38" viewBox="0 0 38 38" fill="none" xmlns="http://www.w3.org/2000/svg">
<rect width="38" height="38" rx="6" fill="url(#paint0_linear_57_51)"/>
<path d="M19 9C24.523 9 29 13.477 29 19C29 24.523 24.523 29 19 29C13.477 29 9 24.523 9 19C9 13.477 13.477 9 19 9ZM19 11C16.8783 11 14.8434 11.8429 13.3431 13.3431C11.8429 14.8434 11 16.8783 11 19C11 21.1217 11.8429 23.1566 13.3431 24.6569C14.8434 26.1571 16.8783 27 19 27C21.1217 27 23.1566 26.1571 24.6569 24.6569C26.1571 23.1566 27 21.1217 27 19C27 16.8783 26.1571 14.8434 24.6569 13.3431C23.1566 11.8429 21.1217 11 19 11ZM19 13C19.2449 13 19.4813 13.09 19.6644 13.2527C19.8474 13.4155 19.9643 13.6397 19.993 13.883L20 14V18.586L22.707 21.293C22.8863 21.473 22.9905 21.7144 22.9982 21.9684C23.006 22.2223 22.9168 22.4697 22.7488 22.6603C22.5807 22.8508 22.3464 22.9703 22.0935 22.9944C21.8406 23.0185 21.588 22.9454 21.387 22.79L21.293 22.707L18.293 19.707C18.1376 19.5514 18.0378 19.349 18.009 19.131L18 19V14C18 13.7348 18.1054 13.4804 18.2929 13.2929C18.4804 13.1054 18.7348 13 19 13Z" fill="white"/>
<defs>
<linearGradient id="paint0_linear_57_51" x1="19" y1="0" x2="19" y2="38" gradientUnits="userSpaceOnUse">
<stop stop-color="#75EBB6"/>
<stop offset="0.5" stop-color="#1F724D"/>
<stop offset="0.9999" stop-color="#84DAB4"/>
</linearGradient>
</defs>
</svg>
