<svg width="38" height="38" viewBox="0 0 38 38" fill="none" xmlns="http://www.w3.org/2000/svg">
<rect width="38" height="38" rx="6" fill="url(#paint0_linear_57_53)"/>
<path d="M9.19995 16.4C9.19995 17.7 9.39995 19.7 11.2 21.5C12.8 23.1 18.1 26.7 18.3 26.9C18.5 27 18.7 27.1 18.9 27.1C19.1 27.1 19.3 27 19.5 26.9C19.7 26.7 25 23.2 26.6 21.5C28.4 19.7 28.6 17.7 28.6 16.4C28.6 13.4 26.2 11 23.2 11C21.6 11 20 11.9 19 13.3C18 11.9 16.4 11 14.6 11C11.7 11 9.19995 13.4 9.19995 16.4Z" fill="white"/>
<defs>
<linearGradient id="paint0_linear_57_53" x1="19" y1="0" x2="19" y2="38" gradientUnits="userSpaceOnUse">
<stop stop-color="#75EBB6"/>
<stop offset="0.5" stop-color="#1F724D"/>
<stop offset="1" stop-color="#84DAB4"/>
</linearGradient>
</defs>
</svg>
