<svg width="38" height="38" viewBox="0 0 38 38" fill="none" xmlns="http://www.w3.org/2000/svg">
<rect width="38" height="38" rx="6" fill="url(#paint0_linear_57_52)"/>
<path fill-rule="evenodd" clip-rule="evenodd" d="M19 26C19.2652 26 19.5196 26.1054 19.7071 26.2929C19.8946 26.4804 20 26.7348 20 27V28C20 28.2652 19.8946 28.5196 19.7071 28.7071C19.5196 28.8946 19.2652 29 19 29C18.7348 29 18.4804 28.8946 18.2929 28.7071C18.1053 28.5196 18 28.2652 18 28V27C18 26.7348 18.1053 26.4804 18.2929 26.2929C18.4804 26.1054 18.7348 26 19 26ZM23.95 23.95C24.1222 23.7778 24.3513 23.6744 24.5943 23.6591C24.8373 23.6438 25.0776 23.7177 25.27 23.867L25.364 23.95L26.071 24.657C26.2503 24.837 26.3545 25.0784 26.3622 25.3324C26.37 25.5863 26.2808 25.8337 26.1127 26.0243C25.9447 26.2148 25.7104 26.3343 25.4575 26.3584C25.2046 26.3825 24.952 26.3094 24.751 26.154L24.657 26.071L23.95 25.364C23.7625 25.1765 23.6572 24.9222 23.6572 24.657C23.6572 24.3918 23.7625 24.1375 23.95 23.95ZM14.05 23.95C14.2375 24.1375 14.3428 24.3918 14.3428 24.657C14.3428 24.9222 14.2375 25.1765 14.05 25.364L13.343 26.071C13.1544 26.2532 12.9018 26.354 12.6396 26.3517C12.3774 26.3494 12.1266 26.2442 11.9412 26.0588C11.7558 25.8734 11.6506 25.6226 11.6483 25.3604C11.646 25.0982 11.7468 24.8456 11.929 24.657L12.636 23.95C12.8235 23.7625 13.0778 23.6572 13.343 23.6572C13.6081 23.6572 13.8625 23.7625 14.05 23.95ZM19 9C19.2449 9.00003 19.4813 9.08996 19.6644 9.25272C19.8474 9.41547 19.9643 9.63975 19.993 9.883L20 10V11.1L28.175 19.276C28.784 19.884 28.398 20.906 27.575 20.994L27.461 21H23.9C23.6724 22.1105 23.0743 23.1108 22.2038 23.8369C21.3332 24.563 20.2419 24.9719 19.1086 24.9965C17.9752 25.0211 16.8671 24.6601 15.9659 23.9725C15.0646 23.2849 14.4236 22.3116 14.148 21.212L14.1 21H10.539C9.67798 21 9.22898 20.004 9.74798 19.361L9.82498 19.276L18 11.1V10C18 9.73478 18.1053 9.48043 18.2929 9.29289C18.4804 9.10536 18.7348 9 19 9ZM21.83 21H16.17C16.3716 21.5703 16.7408 22.0663 17.2292 22.4231C17.7177 22.7799 18.3025 22.9808 18.9071 22.9994C19.5117 23.018 20.1078 22.8534 20.6173 22.5273C21.1267 22.2012 21.5257 21.7288 21.762 21.172L21.83 21ZM25.071 19L19.07 12.998L19 13L18.932 12.998L12.93 19H25.071Z" fill="white"/>
<defs>
<linearGradient id="paint0_linear_57_52" x1="19" y1="0" x2="19" y2="38" gradientUnits="userSpaceOnUse">
<stop stop-color="#75EBB6"/>
<stop offset="0.5" stop-color="#1F724D"/>
<stop offset="0.9999" stop-color="#84DAB4"/>
</linearGradient>
</defs>
</svg>
